<mxfile host="Electron" modified="2023-09-26T10:44:22.991Z" agent="Mozilla/5.0 (Macintosh; Intel Mac OS X 10_15_7) AppleWebKit/537.36 (KHTML, like Gecko) draw.io/21.6.8 Chrome/114.0.5735.289 Electron/25.5.0 Safari/537.36" etag="D_ArAc4iQR242OVA40TR" version="21.6.8" type="device" pages="2">
  <diagram name="dipendenza due" id="X4vW8zOaaurs1oRRGQ_6">
    <mxGraphModel dx="1026" dy="688" grid="1" gridSize="10" guides="1" tooltips="1" connect="1" arrows="1" fold="1" page="1" pageScale="1" pageWidth="1169" pageHeight="1654" math="0" shadow="0">
      <root>
        <mxCell id="0" />
        <mxCell id="1" parent="0" />
        <mxCell id="HHp6l9n1hsnYG9AmwVGV-3" value="" style="edgeStyle=orthogonalEdgeStyle;rounded=0;orthogonalLoop=1;jettySize=auto;html=1;fontSize=14;labelPosition=center;verticalLabelPosition=middle;align=center;verticalAlign=middle;" parent="1" source="HHp6l9n1hsnYG9AmwVGV-1" target="HHp6l9n1hsnYG9AmwVGV-2" edge="1">
          <mxGeometry relative="1" as="geometry" />
        </mxCell>
        <mxCell id="HHp6l9n1hsnYG9AmwVGV-1" value="P0" style="ellipse;whiteSpace=wrap;html=1;aspect=fixed;labelPosition=center;verticalLabelPosition=middle;align=center;verticalAlign=middle;fontSize=14;" parent="1" vertex="1">
          <mxGeometry x="120" y="280" width="40" height="40" as="geometry" />
        </mxCell>
        <mxCell id="HHp6l9n1hsnYG9AmwVGV-8" value="" style="edgeStyle=orthogonalEdgeStyle;rounded=0;orthogonalLoop=1;jettySize=auto;html=1;fontSize=14;labelPosition=center;verticalLabelPosition=middle;align=center;verticalAlign=middle;" parent="1" source="HHp6l9n1hsnYG9AmwVGV-2" target="HHp6l9n1hsnYG9AmwVGV-5" edge="1">
          <mxGeometry relative="1" as="geometry" />
        </mxCell>
        <mxCell id="HHp6l9n1hsnYG9AmwVGV-2" value="&lt;b style=&quot;font-size: 14px;&quot;&gt;PH&lt;/b&gt;" style="whiteSpace=wrap;html=1;aspect=fixed;labelPosition=center;verticalLabelPosition=middle;align=center;verticalAlign=middle;fontSize=14;" parent="1" vertex="1">
          <mxGeometry x="190" y="280" width="40" height="40" as="geometry" />
        </mxCell>
        <mxCell id="HHp6l9n1hsnYG9AmwVGV-4" value="P2" style="ellipse;whiteSpace=wrap;html=1;aspect=fixed;labelPosition=center;verticalLabelPosition=middle;align=center;verticalAlign=middle;fontSize=14;" parent="1" vertex="1">
          <mxGeometry x="260" y="350" width="40" height="40" as="geometry" />
        </mxCell>
        <mxCell id="HHp6l9n1hsnYG9AmwVGV-10" value="" style="edgeStyle=orthogonalEdgeStyle;rounded=0;orthogonalLoop=1;jettySize=auto;html=1;fontSize=14;labelPosition=center;verticalLabelPosition=middle;align=center;verticalAlign=middle;" parent="1" source="HHp6l9n1hsnYG9AmwVGV-5" target="HHp6l9n1hsnYG9AmwVGV-9" edge="1">
          <mxGeometry relative="1" as="geometry" />
        </mxCell>
        <mxCell id="HHp6l9n1hsnYG9AmwVGV-5" value="P1" style="ellipse;whiteSpace=wrap;html=1;aspect=fixed;labelPosition=center;verticalLabelPosition=middle;align=center;verticalAlign=middle;fontSize=14;" parent="1" vertex="1">
          <mxGeometry x="260" y="280" width="40" height="40" as="geometry" />
        </mxCell>
        <mxCell id="HHp6l9n1hsnYG9AmwVGV-6" value="" style="endArrow=classic;html=1;rounded=0;exitX=1;exitY=1;exitDx=0;exitDy=0;entryX=0;entryY=0;entryDx=0;entryDy=0;fontSize=14;labelPosition=center;verticalLabelPosition=middle;align=center;verticalAlign=middle;" parent="1" source="HHp6l9n1hsnYG9AmwVGV-2" target="HHp6l9n1hsnYG9AmwVGV-4" edge="1">
          <mxGeometry width="50" height="50" relative="1" as="geometry">
            <mxPoint x="460" y="330" as="sourcePoint" />
            <mxPoint x="510" y="280" as="targetPoint" />
          </mxGeometry>
        </mxCell>
        <mxCell id="HHp6l9n1hsnYG9AmwVGV-9" value="&lt;b style=&quot;font-size: 14px;&quot;&gt;COPA&lt;/b&gt;" style="whiteSpace=wrap;html=1;aspect=fixed;labelPosition=center;verticalLabelPosition=middle;align=center;verticalAlign=middle;fontSize=14;" parent="1" vertex="1">
          <mxGeometry x="330" y="280" width="40" height="40" as="geometry" />
        </mxCell>
        <mxCell id="y9ymkbr7k5azt2smzUeP-1" value="P4" style="ellipse;whiteSpace=wrap;html=1;aspect=fixed;labelPosition=center;verticalLabelPosition=middle;align=center;verticalAlign=middle;fontSize=14;" parent="1" vertex="1">
          <mxGeometry x="390" y="350" width="40" height="40" as="geometry" />
        </mxCell>
        <mxCell id="y9ymkbr7k5azt2smzUeP-14" style="edgeStyle=orthogonalEdgeStyle;rounded=0;orthogonalLoop=1;jettySize=auto;html=1;entryX=0;entryY=0.5;entryDx=0;entryDy=0;fontSize=14;labelPosition=center;verticalLabelPosition=middle;align=center;verticalAlign=middle;" parent="1" source="y9ymkbr7k5azt2smzUeP-2" target="y9ymkbr7k5azt2smzUeP-9" edge="1">
          <mxGeometry relative="1" as="geometry" />
        </mxCell>
        <mxCell id="y9ymkbr7k5azt2smzUeP-2" value="P3" style="ellipse;whiteSpace=wrap;html=1;aspect=fixed;labelPosition=center;verticalLabelPosition=middle;align=center;verticalAlign=middle;fontSize=14;" parent="1" vertex="1">
          <mxGeometry x="390" y="230" width="40" height="40" as="geometry" />
        </mxCell>
        <mxCell id="y9ymkbr7k5azt2smzUeP-10" style="edgeStyle=orthogonalEdgeStyle;rounded=0;orthogonalLoop=1;jettySize=auto;html=1;entryX=0;entryY=0.5;entryDx=0;entryDy=0;fontSize=14;labelPosition=center;verticalLabelPosition=middle;align=center;verticalAlign=middle;" parent="1" source="y9ymkbr7k5azt2smzUeP-3" target="y9ymkbr7k5azt2smzUeP-7" edge="1">
          <mxGeometry relative="1" as="geometry" />
        </mxCell>
        <mxCell id="y9ymkbr7k5azt2smzUeP-3" value="&lt;b style=&quot;font-size: 14px;&quot;&gt;OD&lt;/b&gt;" style="whiteSpace=wrap;html=1;aspect=fixed;labelPosition=center;verticalLabelPosition=middle;align=center;verticalAlign=middle;fontSize=14;" parent="1" vertex="1">
          <mxGeometry x="440" y="280" width="40" height="40" as="geometry" />
        </mxCell>
        <mxCell id="y9ymkbr7k5azt2smzUeP-4" value="" style="endArrow=classic;html=1;rounded=0;entryX=0;entryY=1;entryDx=0;entryDy=0;exitX=1;exitY=0;exitDx=0;exitDy=0;fontSize=14;labelPosition=center;verticalLabelPosition=middle;align=center;verticalAlign=middle;" parent="1" source="HHp6l9n1hsnYG9AmwVGV-9" target="y9ymkbr7k5azt2smzUeP-2" edge="1">
          <mxGeometry width="50" height="50" relative="1" as="geometry">
            <mxPoint x="400" y="280" as="sourcePoint" />
            <mxPoint x="450" y="230" as="targetPoint" />
          </mxGeometry>
        </mxCell>
        <mxCell id="y9ymkbr7k5azt2smzUeP-5" value="" style="endArrow=classic;html=1;rounded=0;exitX=1;exitY=1;exitDx=0;exitDy=0;entryX=0;entryY=0;entryDx=0;entryDy=0;fontSize=14;labelPosition=center;verticalLabelPosition=middle;align=center;verticalAlign=middle;" parent="1" source="HHp6l9n1hsnYG9AmwVGV-9" target="y9ymkbr7k5azt2smzUeP-1" edge="1">
          <mxGeometry width="50" height="50" relative="1" as="geometry">
            <mxPoint x="430" y="330" as="sourcePoint" />
            <mxPoint x="480" y="280" as="targetPoint" />
          </mxGeometry>
        </mxCell>
        <mxCell id="y9ymkbr7k5azt2smzUeP-6" value="" style="endArrow=classic;html=1;rounded=0;exitX=1;exitY=0.5;exitDx=0;exitDy=0;entryX=0;entryY=0.5;entryDx=0;entryDy=0;fontSize=14;labelPosition=center;verticalLabelPosition=middle;align=center;verticalAlign=middle;" parent="1" source="HHp6l9n1hsnYG9AmwVGV-4" target="y9ymkbr7k5azt2smzUeP-3" edge="1">
          <mxGeometry width="50" height="50" relative="1" as="geometry">
            <mxPoint x="500" y="380" as="sourcePoint" />
            <mxPoint x="550" y="330" as="targetPoint" />
            <Array as="points">
              <mxPoint x="350" y="370" />
              <mxPoint x="430" y="300" />
            </Array>
          </mxGeometry>
        </mxCell>
        <mxCell id="y9ymkbr7k5azt2smzUeP-7" value="P5" style="ellipse;whiteSpace=wrap;html=1;aspect=fixed;labelPosition=center;verticalLabelPosition=middle;align=center;verticalAlign=middle;fontSize=14;" parent="1" vertex="1">
          <mxGeometry x="510" y="280" width="40" height="40" as="geometry" />
        </mxCell>
        <mxCell id="y9ymkbr7k5azt2smzUeP-8" value="P6" style="ellipse;whiteSpace=wrap;html=1;aspect=fixed;labelPosition=center;verticalLabelPosition=middle;align=center;verticalAlign=middle;fontSize=14;" parent="1" vertex="1">
          <mxGeometry x="510" y="350" width="40" height="40" as="geometry" />
        </mxCell>
        <mxCell id="y9ymkbr7k5azt2smzUeP-16" style="edgeStyle=orthogonalEdgeStyle;rounded=0;orthogonalLoop=1;jettySize=auto;html=1;fontSize=14;labelPosition=center;verticalLabelPosition=middle;align=center;verticalAlign=middle;" parent="1" source="y9ymkbr7k5azt2smzUeP-9" target="y9ymkbr7k5azt2smzUeP-15" edge="1">
          <mxGeometry relative="1" as="geometry" />
        </mxCell>
        <mxCell id="y9ymkbr7k5azt2smzUeP-9" value="&lt;b style=&quot;font-size: 14px;&quot;&gt;RD&lt;/b&gt;" style="whiteSpace=wrap;html=1;aspect=fixed;labelPosition=center;verticalLabelPosition=middle;align=center;verticalAlign=middle;fontSize=14;" parent="1" vertex="1">
          <mxGeometry x="590" y="230" width="40" height="40" as="geometry" />
        </mxCell>
        <mxCell id="y9ymkbr7k5azt2smzUeP-11" value="" style="endArrow=classic;html=1;rounded=0;exitX=1;exitY=1;exitDx=0;exitDy=0;entryX=0;entryY=0;entryDx=0;entryDy=0;fontSize=14;labelPosition=center;verticalLabelPosition=middle;align=center;verticalAlign=middle;" parent="1" source="y9ymkbr7k5azt2smzUeP-3" target="y9ymkbr7k5azt2smzUeP-8" edge="1">
          <mxGeometry width="50" height="50" relative="1" as="geometry">
            <mxPoint x="500" y="380" as="sourcePoint" />
            <mxPoint x="550" y="330" as="targetPoint" />
          </mxGeometry>
        </mxCell>
        <mxCell id="y9ymkbr7k5azt2smzUeP-12" value="" style="endArrow=classic;html=1;rounded=0;exitX=1;exitY=0.5;exitDx=0;exitDy=0;entryX=0;entryY=1;entryDx=0;entryDy=0;fontSize=14;labelPosition=center;verticalLabelPosition=middle;align=center;verticalAlign=middle;" parent="1" source="y9ymkbr7k5azt2smzUeP-7" target="y9ymkbr7k5azt2smzUeP-9" edge="1">
          <mxGeometry width="50" height="50" relative="1" as="geometry">
            <mxPoint x="500" y="380" as="sourcePoint" />
            <mxPoint x="550" y="330" as="targetPoint" />
          </mxGeometry>
        </mxCell>
        <mxCell id="y9ymkbr7k5azt2smzUeP-18" style="edgeStyle=orthogonalEdgeStyle;rounded=0;orthogonalLoop=1;jettySize=auto;html=1;fontSize=14;labelPosition=center;verticalLabelPosition=middle;align=center;verticalAlign=middle;" parent="1" source="y9ymkbr7k5azt2smzUeP-15" target="y9ymkbr7k5azt2smzUeP-17" edge="1">
          <mxGeometry relative="1" as="geometry" />
        </mxCell>
        <mxCell id="y9ymkbr7k5azt2smzUeP-15" value="P7" style="ellipse;whiteSpace=wrap;html=1;aspect=fixed;labelPosition=center;verticalLabelPosition=middle;align=center;verticalAlign=middle;fontSize=14;" parent="1" vertex="1">
          <mxGeometry x="660" y="230" width="40" height="40" as="geometry" />
        </mxCell>
        <mxCell id="y9ymkbr7k5azt2smzUeP-28" style="edgeStyle=orthogonalEdgeStyle;rounded=0;orthogonalLoop=1;jettySize=auto;html=1;entryX=0;entryY=0.5;entryDx=0;entryDy=0;fontSize=14;labelPosition=center;verticalLabelPosition=middle;align=center;verticalAlign=middle;" parent="1" source="y9ymkbr7k5azt2smzUeP-17" target="y9ymkbr7k5azt2smzUeP-22" edge="1">
          <mxGeometry relative="1" as="geometry" />
        </mxCell>
        <mxCell id="y9ymkbr7k5azt2smzUeP-17" value="&lt;b style=&quot;font-size: 14px;&quot;&gt;AD&lt;/b&gt;" style="whiteSpace=wrap;html=1;aspect=fixed;labelPosition=center;verticalLabelPosition=middle;align=center;verticalAlign=middle;fontSize=14;" parent="1" vertex="1">
          <mxGeometry x="730" y="230" width="40" height="40" as="geometry" />
        </mxCell>
        <mxCell id="y9ymkbr7k5azt2smzUeP-19" value="" style="endArrow=classic;html=1;rounded=0;exitX=1;exitY=0;exitDx=0;exitDy=0;entryX=0;entryY=1;entryDx=0;entryDy=0;fontSize=14;labelPosition=center;verticalLabelPosition=middle;align=center;verticalAlign=middle;" parent="1" source="y9ymkbr7k5azt2smzUeP-8" target="y9ymkbr7k5azt2smzUeP-17" edge="1">
          <mxGeometry width="50" height="50" relative="1" as="geometry">
            <mxPoint x="640" y="440" as="sourcePoint" />
            <mxPoint x="690" y="390" as="targetPoint" />
            <Array as="points">
              <mxPoint x="590" y="310" />
              <mxPoint x="690" y="310" />
            </Array>
          </mxGeometry>
        </mxCell>
        <mxCell id="y9ymkbr7k5azt2smzUeP-20" value="" style="endArrow=classic;html=1;rounded=0;entryX=0;entryY=1;entryDx=0;entryDy=0;exitX=1;exitY=0;exitDx=0;exitDy=0;fontSize=14;labelPosition=center;verticalLabelPosition=middle;align=center;verticalAlign=middle;" parent="1" source="y9ymkbr7k5azt2smzUeP-1" target="y9ymkbr7k5azt2smzUeP-3" edge="1">
          <mxGeometry width="50" height="50" relative="1" as="geometry">
            <mxPoint x="424" y="356" as="sourcePoint" />
            <mxPoint x="406" y="366" as="targetPoint" />
          </mxGeometry>
        </mxCell>
        <mxCell id="y9ymkbr7k5azt2smzUeP-30" style="edgeStyle=orthogonalEdgeStyle;rounded=0;orthogonalLoop=1;jettySize=auto;html=1;fontSize=14;labelPosition=center;verticalLabelPosition=middle;align=center;verticalAlign=middle;" parent="1" source="y9ymkbr7k5azt2smzUeP-21" target="y9ymkbr7k5azt2smzUeP-26" edge="1">
          <mxGeometry relative="1" as="geometry" />
        </mxCell>
        <mxCell id="y9ymkbr7k5azt2smzUeP-21" value="P9" style="ellipse;whiteSpace=wrap;html=1;aspect=fixed;labelPosition=center;verticalLabelPosition=middle;align=center;verticalAlign=middle;fontSize=14;" parent="1" vertex="1">
          <mxGeometry x="800" y="320" width="40" height="40" as="geometry" />
        </mxCell>
        <mxCell id="y9ymkbr7k5azt2smzUeP-29" style="edgeStyle=orthogonalEdgeStyle;rounded=0;orthogonalLoop=1;jettySize=auto;html=1;entryX=0;entryY=0.5;entryDx=0;entryDy=0;fontSize=14;labelPosition=center;verticalLabelPosition=middle;align=center;verticalAlign=middle;" parent="1" source="y9ymkbr7k5azt2smzUeP-22" target="y9ymkbr7k5azt2smzUeP-27" edge="1">
          <mxGeometry relative="1" as="geometry" />
        </mxCell>
        <mxCell id="y9ymkbr7k5azt2smzUeP-22" value="P8" style="ellipse;whiteSpace=wrap;html=1;aspect=fixed;labelPosition=center;verticalLabelPosition=middle;align=center;verticalAlign=middle;fontSize=14;" parent="1" vertex="1">
          <mxGeometry x="800" y="230" width="40" height="40" as="geometry" />
        </mxCell>
        <mxCell id="y9ymkbr7k5azt2smzUeP-25" value="" style="endArrow=classic;html=1;rounded=0;exitX=1;exitY=1;exitDx=0;exitDy=0;entryX=0;entryY=0;entryDx=0;entryDy=0;fontSize=14;labelPosition=center;verticalLabelPosition=middle;align=center;verticalAlign=middle;" parent="1" source="y9ymkbr7k5azt2smzUeP-17" target="y9ymkbr7k5azt2smzUeP-21" edge="1">
          <mxGeometry width="50" height="50" relative="1" as="geometry">
            <mxPoint x="580" y="370" as="sourcePoint" />
            <mxPoint x="630" y="320" as="targetPoint" />
          </mxGeometry>
        </mxCell>
        <mxCell id="y9ymkbr7k5azt2smzUeP-36" style="edgeStyle=orthogonalEdgeStyle;rounded=0;orthogonalLoop=1;jettySize=auto;html=1;fontSize=14;labelPosition=center;verticalLabelPosition=middle;align=center;verticalAlign=middle;" parent="1" source="y9ymkbr7k5azt2smzUeP-26" target="y9ymkbr7k5azt2smzUeP-33" edge="1">
          <mxGeometry relative="1" as="geometry" />
        </mxCell>
        <mxCell id="y9ymkbr7k5azt2smzUeP-26" value="&lt;b style=&quot;font-size: 14px;&quot;&gt;PRTA&lt;/b&gt;" style="whiteSpace=wrap;html=1;aspect=fixed;labelPosition=center;verticalLabelPosition=middle;align=center;verticalAlign=middle;fontSize=14;" parent="1" vertex="1">
          <mxGeometry x="870" y="320" width="40" height="40" as="geometry" />
        </mxCell>
        <mxCell id="y9ymkbr7k5azt2smzUeP-35" style="edgeStyle=orthogonalEdgeStyle;rounded=0;orthogonalLoop=1;jettySize=auto;html=1;entryX=0;entryY=0.5;entryDx=0;entryDy=0;fontSize=14;labelPosition=center;verticalLabelPosition=middle;align=center;verticalAlign=middle;" parent="1" source="y9ymkbr7k5azt2smzUeP-27" target="y9ymkbr7k5azt2smzUeP-31" edge="1">
          <mxGeometry relative="1" as="geometry" />
        </mxCell>
        <mxCell id="y9ymkbr7k5azt2smzUeP-27" value="&lt;b style=&quot;font-size: 14px;&quot;&gt;TP&lt;/b&gt;" style="whiteSpace=wrap;html=1;aspect=fixed;labelPosition=center;verticalLabelPosition=middle;align=center;verticalAlign=middle;fontSize=14;" parent="1" vertex="1">
          <mxGeometry x="870" y="230" width="40" height="40" as="geometry" />
        </mxCell>
        <mxCell id="y9ymkbr7k5azt2smzUeP-31" value="P13" style="ellipse;whiteSpace=wrap;html=1;aspect=fixed;labelPosition=center;verticalLabelPosition=middle;align=center;verticalAlign=middle;fontSize=14;" parent="1" vertex="1">
          <mxGeometry x="950" y="230" width="40" height="40" as="geometry" />
        </mxCell>
        <mxCell id="y9ymkbr7k5azt2smzUeP-44" style="edgeStyle=orthogonalEdgeStyle;rounded=0;orthogonalLoop=1;jettySize=auto;html=1;fontSize=14;labelPosition=center;verticalLabelPosition=middle;align=center;verticalAlign=middle;" parent="1" source="y9ymkbr7k5azt2smzUeP-32" target="y9ymkbr7k5azt2smzUeP-43" edge="1">
          <mxGeometry relative="1" as="geometry" />
        </mxCell>
        <mxCell id="y9ymkbr7k5azt2smzUeP-32" value="P12" style="ellipse;whiteSpace=wrap;html=1;aspect=fixed;labelPosition=center;verticalLabelPosition=middle;align=center;verticalAlign=middle;fontSize=14;" parent="1" vertex="1">
          <mxGeometry x="950" y="160" width="40" height="40" as="geometry" />
        </mxCell>
        <mxCell id="y9ymkbr7k5azt2smzUeP-33" value="P10" style="ellipse;whiteSpace=wrap;html=1;aspect=fixed;labelPosition=center;verticalLabelPosition=middle;align=center;verticalAlign=middle;fontSize=14;" parent="1" vertex="1">
          <mxGeometry x="950" y="320" width="40" height="40" as="geometry" />
        </mxCell>
        <mxCell id="y9ymkbr7k5azt2smzUeP-41" style="edgeStyle=orthogonalEdgeStyle;rounded=0;orthogonalLoop=1;jettySize=auto;html=1;fontSize=14;labelPosition=center;verticalLabelPosition=middle;align=center;verticalAlign=middle;" parent="1" source="y9ymkbr7k5azt2smzUeP-34" target="y9ymkbr7k5azt2smzUeP-40" edge="1">
          <mxGeometry relative="1" as="geometry" />
        </mxCell>
        <mxCell id="y9ymkbr7k5azt2smzUeP-34" value="P11" style="ellipse;whiteSpace=wrap;html=1;aspect=fixed;labelPosition=center;verticalLabelPosition=middle;align=center;verticalAlign=middle;fontSize=14;" parent="1" vertex="1">
          <mxGeometry x="950" y="400" width="40" height="40" as="geometry" />
        </mxCell>
        <mxCell id="y9ymkbr7k5azt2smzUeP-37" value="" style="endArrow=classic;html=1;rounded=0;exitX=1;exitY=1;exitDx=0;exitDy=0;entryX=0;entryY=0.35;entryDx=0;entryDy=0;entryPerimeter=0;fontSize=14;labelPosition=center;verticalLabelPosition=middle;align=center;verticalAlign=middle;" parent="1" source="y9ymkbr7k5azt2smzUeP-26" target="y9ymkbr7k5azt2smzUeP-34" edge="1">
          <mxGeometry width="50" height="50" relative="1" as="geometry">
            <mxPoint x="865" y="445" as="sourcePoint" />
            <mxPoint x="915" y="395" as="targetPoint" />
          </mxGeometry>
        </mxCell>
        <mxCell id="y9ymkbr7k5azt2smzUeP-38" value="" style="endArrow=classic;html=1;rounded=0;exitX=1;exitY=0;exitDx=0;exitDy=0;entryX=0;entryY=0.775;entryDx=0;entryDy=0;entryPerimeter=0;fontSize=14;labelPosition=center;verticalLabelPosition=middle;align=center;verticalAlign=middle;" parent="1" source="y9ymkbr7k5azt2smzUeP-27" target="y9ymkbr7k5azt2smzUeP-32" edge="1">
          <mxGeometry width="50" height="50" relative="1" as="geometry">
            <mxPoint x="860" y="200" as="sourcePoint" />
            <mxPoint x="910" y="150" as="targetPoint" />
          </mxGeometry>
        </mxCell>
        <mxCell id="y9ymkbr7k5azt2smzUeP-58" style="edgeStyle=orthogonalEdgeStyle;rounded=0;orthogonalLoop=1;jettySize=auto;html=1;entryX=0;entryY=0.5;entryDx=0;entryDy=0;fontSize=14;labelPosition=center;verticalLabelPosition=middle;align=center;verticalAlign=middle;" parent="1" source="y9ymkbr7k5azt2smzUeP-39" target="y9ymkbr7k5azt2smzUeP-57" edge="1">
          <mxGeometry relative="1" as="geometry" />
        </mxCell>
        <mxCell id="y9ymkbr7k5azt2smzUeP-39" value="&lt;b style=&quot;font-size: 14px;&quot;&gt;DPH&lt;br style=&quot;font-size: 14px;&quot;&gt;&lt;/b&gt;" style="whiteSpace=wrap;html=1;aspect=fixed;labelPosition=center;verticalLabelPosition=middle;align=center;verticalAlign=middle;fontSize=14;" parent="1" vertex="1">
          <mxGeometry x="1170" y="280" width="40" height="40" as="geometry" />
        </mxCell>
        <mxCell id="y9ymkbr7k5azt2smzUeP-40" value="&lt;b style=&quot;font-size: 14px;&quot;&gt;PCD&lt;/b&gt;" style="whiteSpace=wrap;html=1;aspect=fixed;labelPosition=center;verticalLabelPosition=middle;align=center;verticalAlign=middle;fontSize=14;" parent="1" vertex="1">
          <mxGeometry x="1290" y="400" width="40" height="40" as="geometry" />
        </mxCell>
        <mxCell id="y9ymkbr7k5azt2smzUeP-56" style="edgeStyle=orthogonalEdgeStyle;rounded=0;orthogonalLoop=1;jettySize=auto;html=1;fontSize=14;labelPosition=center;verticalLabelPosition=middle;align=center;verticalAlign=middle;" parent="1" source="y9ymkbr7k5azt2smzUeP-43" target="y9ymkbr7k5azt2smzUeP-50" edge="1">
          <mxGeometry relative="1" as="geometry" />
        </mxCell>
        <mxCell id="y9ymkbr7k5azt2smzUeP-43" value="&lt;b style=&quot;font-size: 14px;&quot;&gt;RPB&lt;br style=&quot;font-size: 14px;&quot;&gt;&lt;/b&gt;" style="whiteSpace=wrap;html=1;aspect=fixed;labelPosition=center;verticalLabelPosition=middle;align=center;verticalAlign=middle;fontSize=14;" parent="1" vertex="1">
          <mxGeometry x="1030" y="160" width="40" height="40" as="geometry" />
        </mxCell>
        <mxCell id="y9ymkbr7k5azt2smzUeP-45" value="" style="endArrow=classic;html=1;rounded=0;entryX=0;entryY=0;entryDx=0;entryDy=0;exitX=1;exitY=1;exitDx=0;exitDy=0;fontSize=14;labelPosition=center;verticalLabelPosition=middle;align=center;verticalAlign=middle;" parent="1" source="y9ymkbr7k5azt2smzUeP-51" target="y9ymkbr7k5azt2smzUeP-39" edge="1">
          <mxGeometry width="50" height="50" relative="1" as="geometry">
            <mxPoint x="1080" y="200" as="sourcePoint" />
            <mxPoint x="1180" y="210" as="targetPoint" />
          </mxGeometry>
        </mxCell>
        <mxCell id="y9ymkbr7k5azt2smzUeP-46" value="" style="endArrow=classic;html=1;rounded=0;exitX=1;exitY=0.5;exitDx=0;exitDy=0;entryX=0;entryY=0.75;entryDx=0;entryDy=0;fontSize=14;labelPosition=center;verticalLabelPosition=middle;align=center;verticalAlign=middle;" parent="1" source="y9ymkbr7k5azt2smzUeP-33" target="y9ymkbr7k5azt2smzUeP-39" edge="1">
          <mxGeometry width="50" height="50" relative="1" as="geometry">
            <mxPoint x="1040" y="350" as="sourcePoint" />
            <mxPoint x="1090" y="300" as="targetPoint" />
            <Array as="points">
              <mxPoint x="1040" y="340" />
              <mxPoint x="1100" y="310" />
            </Array>
          </mxGeometry>
        </mxCell>
        <mxCell id="y9ymkbr7k5azt2smzUeP-47" value="" style="endArrow=classic;html=1;rounded=0;exitX=1;exitY=0.5;exitDx=0;exitDy=0;entryX=0;entryY=0.25;entryDx=0;entryDy=0;fontSize=14;labelPosition=center;verticalLabelPosition=middle;align=center;verticalAlign=middle;" parent="1" source="y9ymkbr7k5azt2smzUeP-31" target="y9ymkbr7k5azt2smzUeP-39" edge="1">
          <mxGeometry width="50" height="50" relative="1" as="geometry">
            <mxPoint x="1020" y="310" as="sourcePoint" />
            <mxPoint x="1070" y="260" as="targetPoint" />
            <Array as="points">
              <mxPoint x="1040" y="250" />
              <mxPoint x="1100" y="290" />
            </Array>
          </mxGeometry>
        </mxCell>
        <mxCell id="y9ymkbr7k5azt2smzUeP-50" value="P14" style="ellipse;whiteSpace=wrap;html=1;aspect=fixed;labelPosition=center;verticalLabelPosition=middle;align=center;verticalAlign=middle;fontSize=14;" parent="1" vertex="1">
          <mxGeometry x="1100" y="160" width="40" height="40" as="geometry" />
        </mxCell>
        <mxCell id="y9ymkbr7k5azt2smzUeP-51" value="P15" style="ellipse;whiteSpace=wrap;html=1;aspect=fixed;labelPosition=center;verticalLabelPosition=middle;align=center;verticalAlign=middle;fontSize=14;" parent="1" vertex="1">
          <mxGeometry x="1100" y="220" width="40" height="40" as="geometry" />
        </mxCell>
        <mxCell id="y9ymkbr7k5azt2smzUeP-54" style="edgeStyle=orthogonalEdgeStyle;rounded=0;orthogonalLoop=1;jettySize=auto;html=1;fontSize=14;labelPosition=center;verticalLabelPosition=middle;align=center;verticalAlign=middle;" parent="1" source="y9ymkbr7k5azt2smzUeP-52" target="y9ymkbr7k5azt2smzUeP-53" edge="1">
          <mxGeometry relative="1" as="geometry" />
        </mxCell>
        <mxCell id="y9ymkbr7k5azt2smzUeP-52" value="&lt;b style=&quot;font-size: 14px;&quot;&gt;DP&lt;br style=&quot;font-size: 14px;&quot;&gt;&lt;/b&gt;" style="whiteSpace=wrap;html=1;aspect=fixed;labelPosition=center;verticalLabelPosition=middle;align=center;verticalAlign=middle;fontSize=14;" parent="1" vertex="1">
          <mxGeometry x="1320" y="280" width="40" height="40" as="geometry" />
        </mxCell>
        <mxCell id="y9ymkbr7k5azt2smzUeP-53" value="P18" style="ellipse;whiteSpace=wrap;html=1;aspect=fixed;labelPosition=center;verticalLabelPosition=middle;align=center;verticalAlign=middle;fontSize=14;" parent="1" vertex="1">
          <mxGeometry x="1390" y="280" width="40" height="40" as="geometry" />
        </mxCell>
        <mxCell id="y9ymkbr7k5azt2smzUeP-55" value="" style="endArrow=classic;html=1;rounded=0;exitX=1;exitY=1;exitDx=0;exitDy=0;entryX=0;entryY=0;entryDx=0;entryDy=0;fontSize=14;labelPosition=center;verticalLabelPosition=middle;align=center;verticalAlign=middle;" parent="1" source="y9ymkbr7k5azt2smzUeP-43" target="y9ymkbr7k5azt2smzUeP-51" edge="1">
          <mxGeometry width="50" height="50" relative="1" as="geometry">
            <mxPoint x="1230" y="200" as="sourcePoint" />
            <mxPoint x="1280" y="150" as="targetPoint" />
          </mxGeometry>
        </mxCell>
        <mxCell id="y9ymkbr7k5azt2smzUeP-62" style="edgeStyle=orthogonalEdgeStyle;rounded=0;orthogonalLoop=1;jettySize=auto;html=1;entryX=0;entryY=0.5;entryDx=0;entryDy=0;fontSize=14;labelPosition=center;verticalLabelPosition=middle;align=center;verticalAlign=middle;" parent="1" source="y9ymkbr7k5azt2smzUeP-57" target="y9ymkbr7k5azt2smzUeP-52" edge="1">
          <mxGeometry relative="1" as="geometry" />
        </mxCell>
        <mxCell id="y9ymkbr7k5azt2smzUeP-57" value="P16" style="ellipse;whiteSpace=wrap;html=1;aspect=fixed;labelPosition=center;verticalLabelPosition=middle;align=center;verticalAlign=middle;fontSize=14;" parent="1" vertex="1">
          <mxGeometry x="1240" y="280" width="40" height="40" as="geometry" />
        </mxCell>
        <mxCell id="y9ymkbr7k5azt2smzUeP-59" value="P17" style="ellipse;whiteSpace=wrap;html=1;aspect=fixed;labelPosition=center;verticalLabelPosition=middle;align=center;verticalAlign=middle;fontSize=14;" parent="1" vertex="1">
          <mxGeometry x="1240" y="350" width="40" height="40" as="geometry" />
        </mxCell>
        <mxCell id="y9ymkbr7k5azt2smzUeP-60" value="" style="endArrow=classic;html=1;rounded=0;exitX=1;exitY=1;exitDx=0;exitDy=0;entryX=0;entryY=0;entryDx=0;entryDy=0;fontSize=14;labelPosition=center;verticalLabelPosition=middle;align=center;verticalAlign=middle;" parent="1" source="y9ymkbr7k5azt2smzUeP-39" target="y9ymkbr7k5azt2smzUeP-59" edge="1">
          <mxGeometry width="50" height="50" relative="1" as="geometry">
            <mxPoint x="1270" y="570" as="sourcePoint" />
            <mxPoint x="1320" y="520" as="targetPoint" />
          </mxGeometry>
        </mxCell>
        <mxCell id="y9ymkbr7k5azt2smzUeP-61" value="" style="endArrow=classic;html=1;rounded=0;exitX=1;exitY=1;exitDx=0;exitDy=0;entryX=0;entryY=0;entryDx=0;entryDy=0;fontSize=14;labelPosition=center;verticalLabelPosition=middle;align=center;verticalAlign=middle;" parent="1" source="y9ymkbr7k5azt2smzUeP-59" target="y9ymkbr7k5azt2smzUeP-40" edge="1">
          <mxGeometry width="50" height="50" relative="1" as="geometry">
            <mxPoint x="1330" y="550" as="sourcePoint" />
            <mxPoint x="1380" y="500" as="targetPoint" />
          </mxGeometry>
        </mxCell>
        <mxCell id="y9ymkbr7k5azt2smzUeP-63" value="" style="endArrow=classic;html=1;rounded=0;exitX=1;exitY=0.5;exitDx=0;exitDy=0;entryX=0.5;entryY=0;entryDx=0;entryDy=0;fontSize=14;labelPosition=center;verticalLabelPosition=middle;align=center;verticalAlign=middle;" parent="1" source="y9ymkbr7k5azt2smzUeP-50" target="y9ymkbr7k5azt2smzUeP-40" edge="1">
          <mxGeometry width="50" height="50" relative="1" as="geometry">
            <mxPoint x="1300" y="200" as="sourcePoint" />
            <mxPoint x="1350" y="150" as="targetPoint" />
            <Array as="points">
              <mxPoint x="1200" y="180" />
              <mxPoint x="1260" y="180" />
            </Array>
          </mxGeometry>
        </mxCell>
      </root>
    </mxGraphModel>
  </diagram>
  <diagram id="0Nn151upEV0oq2OL_P2F" name="dipendenza uno">
    <mxGraphModel dx="1026" dy="688" grid="1" gridSize="10" guides="1" tooltips="1" connect="1" arrows="1" fold="1" page="1" pageScale="1" pageWidth="1169" pageHeight="1654" math="0" shadow="0">
      <root>
        <mxCell id="0" />
        <mxCell id="1" parent="0" />
        <mxCell id="NxsAokre6TuH8EfcnmVp-1" value="" style="edgeStyle=orthogonalEdgeStyle;rounded=0;orthogonalLoop=1;jettySize=auto;html=1;fontSize=14;labelPosition=center;verticalLabelPosition=middle;align=center;verticalAlign=middle;" parent="1" source="NxsAokre6TuH8EfcnmVp-2" target="NxsAokre6TuH8EfcnmVp-4" edge="1">
          <mxGeometry relative="1" as="geometry" />
        </mxCell>
        <mxCell id="NxsAokre6TuH8EfcnmVp-2" value="P0" style="ellipse;whiteSpace=wrap;html=1;aspect=fixed;labelPosition=center;verticalLabelPosition=middle;align=center;verticalAlign=middle;fontSize=14;" parent="1" vertex="1">
          <mxGeometry x="80" y="280" width="40" height="40" as="geometry" />
        </mxCell>
        <mxCell id="NxsAokre6TuH8EfcnmVp-3" value="" style="edgeStyle=orthogonalEdgeStyle;rounded=0;orthogonalLoop=1;jettySize=auto;html=1;fontSize=14;labelPosition=center;verticalLabelPosition=middle;align=center;verticalAlign=middle;" parent="1" source="NxsAokre6TuH8EfcnmVp-4" target="NxsAokre6TuH8EfcnmVp-7" edge="1">
          <mxGeometry relative="1" as="geometry" />
        </mxCell>
        <mxCell id="NxsAokre6TuH8EfcnmVp-4" value="&lt;b style=&quot;font-size: 14px;&quot;&gt;PH&lt;/b&gt;" style="whiteSpace=wrap;html=1;aspect=fixed;labelPosition=center;verticalLabelPosition=middle;align=center;verticalAlign=middle;fontSize=14;" parent="1" vertex="1">
          <mxGeometry x="140" y="280" width="40" height="40" as="geometry" />
        </mxCell>
        <mxCell id="NxsAokre6TuH8EfcnmVp-6" value="" style="edgeStyle=orthogonalEdgeStyle;rounded=0;orthogonalLoop=1;jettySize=auto;html=1;fontSize=14;labelPosition=center;verticalLabelPosition=middle;align=center;verticalAlign=middle;" parent="1" source="NxsAokre6TuH8EfcnmVp-7" target="NxsAokre6TuH8EfcnmVp-9" edge="1">
          <mxGeometry relative="1" as="geometry" />
        </mxCell>
        <mxCell id="NxsAokre6TuH8EfcnmVp-7" value="P1" style="ellipse;whiteSpace=wrap;html=1;aspect=fixed;labelPosition=center;verticalLabelPosition=middle;align=center;verticalAlign=middle;fontSize=14;" parent="1" vertex="1">
          <mxGeometry x="200" y="280" width="40" height="40" as="geometry" />
        </mxCell>
        <mxCell id="NxsAokre6TuH8EfcnmVp-67" style="edgeStyle=orthogonalEdgeStyle;rounded=0;orthogonalLoop=1;jettySize=auto;html=1;" parent="1" source="NxsAokre6TuH8EfcnmVp-9" target="NxsAokre6TuH8EfcnmVp-10" edge="1">
          <mxGeometry relative="1" as="geometry" />
        </mxCell>
        <mxCell id="NxsAokre6TuH8EfcnmVp-9" value="&lt;b style=&quot;font-size: 14px;&quot;&gt;COPA&lt;/b&gt;" style="whiteSpace=wrap;html=1;aspect=fixed;labelPosition=center;verticalLabelPosition=middle;align=center;verticalAlign=middle;fontSize=14;" parent="1" vertex="1">
          <mxGeometry x="260" y="280" width="40" height="40" as="geometry" />
        </mxCell>
        <mxCell id="NxsAokre6TuH8EfcnmVp-68" style="edgeStyle=orthogonalEdgeStyle;rounded=0;orthogonalLoop=1;jettySize=auto;html=1;" parent="1" source="NxsAokre6TuH8EfcnmVp-10" target="NxsAokre6TuH8EfcnmVp-14" edge="1">
          <mxGeometry relative="1" as="geometry" />
        </mxCell>
        <mxCell id="NxsAokre6TuH8EfcnmVp-10" value="P2" style="ellipse;whiteSpace=wrap;html=1;aspect=fixed;labelPosition=center;verticalLabelPosition=middle;align=center;verticalAlign=middle;fontSize=14;" parent="1" vertex="1">
          <mxGeometry x="320" y="280" width="40" height="40" as="geometry" />
        </mxCell>
        <mxCell id="NxsAokre6TuH8EfcnmVp-13" style="edgeStyle=orthogonalEdgeStyle;rounded=0;orthogonalLoop=1;jettySize=auto;html=1;entryX=0;entryY=0.5;entryDx=0;entryDy=0;fontSize=14;labelPosition=center;verticalLabelPosition=middle;align=center;verticalAlign=middle;" parent="1" source="NxsAokre6TuH8EfcnmVp-14" target="NxsAokre6TuH8EfcnmVp-18" edge="1">
          <mxGeometry relative="1" as="geometry" />
        </mxCell>
        <mxCell id="NxsAokre6TuH8EfcnmVp-14" value="&lt;b style=&quot;font-size: 14px;&quot;&gt;OD&lt;/b&gt;" style="whiteSpace=wrap;html=1;aspect=fixed;labelPosition=center;verticalLabelPosition=middle;align=center;verticalAlign=middle;fontSize=14;" parent="1" vertex="1">
          <mxGeometry x="380" y="280" width="40" height="40" as="geometry" />
        </mxCell>
        <mxCell id="NxsAokre6TuH8EfcnmVp-70" style="edgeStyle=orthogonalEdgeStyle;rounded=0;orthogonalLoop=1;jettySize=auto;html=1;entryX=0;entryY=0.5;entryDx=0;entryDy=0;" parent="1" source="NxsAokre6TuH8EfcnmVp-18" target="NxsAokre6TuH8EfcnmVp-21" edge="1">
          <mxGeometry relative="1" as="geometry" />
        </mxCell>
        <mxCell id="NxsAokre6TuH8EfcnmVp-18" value="P3" style="ellipse;whiteSpace=wrap;html=1;aspect=fixed;labelPosition=center;verticalLabelPosition=middle;align=center;verticalAlign=middle;fontSize=14;" parent="1" vertex="1">
          <mxGeometry x="440" y="280" width="40" height="40" as="geometry" />
        </mxCell>
        <mxCell id="NxsAokre6TuH8EfcnmVp-20" style="edgeStyle=orthogonalEdgeStyle;rounded=0;orthogonalLoop=1;jettySize=auto;html=1;fontSize=14;labelPosition=center;verticalLabelPosition=middle;align=center;verticalAlign=middle;" parent="1" source="NxsAokre6TuH8EfcnmVp-21" target="NxsAokre6TuH8EfcnmVp-25" edge="1">
          <mxGeometry relative="1" as="geometry" />
        </mxCell>
        <mxCell id="NxsAokre6TuH8EfcnmVp-21" value="&lt;b style=&quot;font-size: 14px;&quot;&gt;RD&lt;/b&gt;" style="whiteSpace=wrap;html=1;aspect=fixed;labelPosition=center;verticalLabelPosition=middle;align=center;verticalAlign=middle;fontSize=14;" parent="1" vertex="1">
          <mxGeometry x="500" y="280" width="40" height="40" as="geometry" />
        </mxCell>
        <mxCell id="NxsAokre6TuH8EfcnmVp-24" style="edgeStyle=orthogonalEdgeStyle;rounded=0;orthogonalLoop=1;jettySize=auto;html=1;fontSize=14;labelPosition=center;verticalLabelPosition=middle;align=center;verticalAlign=middle;" parent="1" source="NxsAokre6TuH8EfcnmVp-25" target="NxsAokre6TuH8EfcnmVp-27" edge="1">
          <mxGeometry relative="1" as="geometry" />
        </mxCell>
        <mxCell id="NxsAokre6TuH8EfcnmVp-25" value="P4" style="ellipse;whiteSpace=wrap;html=1;aspect=fixed;labelPosition=center;verticalLabelPosition=middle;align=center;verticalAlign=middle;fontSize=14;" parent="1" vertex="1">
          <mxGeometry x="565" y="280" width="40" height="40" as="geometry" />
        </mxCell>
        <mxCell id="NxsAokre6TuH8EfcnmVp-26" style="edgeStyle=orthogonalEdgeStyle;rounded=0;orthogonalLoop=1;jettySize=auto;html=1;entryX=0;entryY=0.5;entryDx=0;entryDy=0;fontSize=14;labelPosition=center;verticalLabelPosition=middle;align=center;verticalAlign=middle;" parent="1" source="NxsAokre6TuH8EfcnmVp-27" target="NxsAokre6TuH8EfcnmVp-33" edge="1">
          <mxGeometry relative="1" as="geometry" />
        </mxCell>
        <mxCell id="NxsAokre6TuH8EfcnmVp-27" value="&lt;b style=&quot;font-size: 14px;&quot;&gt;AD&lt;/b&gt;" style="whiteSpace=wrap;html=1;aspect=fixed;labelPosition=center;verticalLabelPosition=middle;align=center;verticalAlign=middle;fontSize=14;" parent="1" vertex="1">
          <mxGeometry x="630" y="280" width="40" height="40" as="geometry" />
        </mxCell>
        <mxCell id="NxsAokre6TuH8EfcnmVp-33" value="P5" style="ellipse;whiteSpace=wrap;html=1;aspect=fixed;labelPosition=center;verticalLabelPosition=middle;align=center;verticalAlign=middle;fontSize=14;" parent="1" vertex="1">
          <mxGeometry x="690" y="280" width="40" height="40" as="geometry" />
        </mxCell>
        <mxCell id="NxsAokre6TuH8EfcnmVp-36" value="&lt;b style=&quot;font-size: 14px;&quot;&gt;PRTA&lt;/b&gt;" style="whiteSpace=wrap;html=1;aspect=fixed;labelPosition=center;verticalLabelPosition=middle;align=center;verticalAlign=middle;fontSize=14;" parent="1" vertex="1">
          <mxGeometry x="760" y="280" width="40" height="40" as="geometry" />
        </mxCell>
        <mxCell id="NxsAokre6TuH8EfcnmVp-74" style="edgeStyle=orthogonalEdgeStyle;rounded=0;orthogonalLoop=1;jettySize=auto;html=1;entryX=0;entryY=0.5;entryDx=0;entryDy=0;" parent="1" source="NxsAokre6TuH8EfcnmVp-38" target="NxsAokre6TuH8EfcnmVp-41" edge="1">
          <mxGeometry relative="1" as="geometry" />
        </mxCell>
        <mxCell id="NxsAokre6TuH8EfcnmVp-38" value="&lt;b style=&quot;font-size: 14px;&quot;&gt;TP&lt;/b&gt;" style="whiteSpace=wrap;html=1;aspect=fixed;labelPosition=center;verticalLabelPosition=middle;align=center;verticalAlign=middle;fontSize=14;" parent="1" vertex="1">
          <mxGeometry x="760" y="200" width="40" height="40" as="geometry" />
        </mxCell>
        <mxCell id="NxsAokre6TuH8EfcnmVp-40" style="edgeStyle=orthogonalEdgeStyle;rounded=0;orthogonalLoop=1;jettySize=auto;html=1;fontSize=14;labelPosition=center;verticalLabelPosition=middle;align=center;verticalAlign=middle;" parent="1" source="NxsAokre6TuH8EfcnmVp-41" target="NxsAokre6TuH8EfcnmVp-51" edge="1">
          <mxGeometry relative="1" as="geometry" />
        </mxCell>
        <mxCell id="NxsAokre6TuH8EfcnmVp-41" value="P6" style="ellipse;whiteSpace=wrap;html=1;aspect=fixed;labelPosition=center;verticalLabelPosition=middle;align=center;verticalAlign=middle;fontSize=14;" parent="1" vertex="1">
          <mxGeometry x="820" y="200" width="40" height="40" as="geometry" />
        </mxCell>
        <mxCell id="NxsAokre6TuH8EfcnmVp-80" style="edgeStyle=orthogonalEdgeStyle;rounded=0;orthogonalLoop=1;jettySize=auto;html=1;" parent="1" source="NxsAokre6TuH8EfcnmVp-42" target="NxsAokre6TuH8EfcnmVp-48" edge="1">
          <mxGeometry relative="1" as="geometry" />
        </mxCell>
        <mxCell id="NxsAokre6TuH8EfcnmVp-42" value="P7" style="ellipse;whiteSpace=wrap;html=1;aspect=fixed;labelPosition=center;verticalLabelPosition=middle;align=center;verticalAlign=middle;fontSize=14;" parent="1" vertex="1">
          <mxGeometry x="940" y="280" width="40" height="40" as="geometry" />
        </mxCell>
        <mxCell id="NxsAokre6TuH8EfcnmVp-81" style="edgeStyle=orthogonalEdgeStyle;rounded=0;orthogonalLoop=1;jettySize=auto;html=1;" parent="1" source="NxsAokre6TuH8EfcnmVp-44" target="NxsAokre6TuH8EfcnmVp-49" edge="1">
          <mxGeometry relative="1" as="geometry" />
        </mxCell>
        <mxCell id="NxsAokre6TuH8EfcnmVp-44" value="P8" style="ellipse;whiteSpace=wrap;html=1;aspect=fixed;labelPosition=center;verticalLabelPosition=middle;align=center;verticalAlign=middle;fontSize=14;" parent="1" vertex="1">
          <mxGeometry x="940" y="340" width="40" height="40" as="geometry" />
        </mxCell>
        <mxCell id="NxsAokre6TuH8EfcnmVp-45" value="" style="endArrow=classic;html=1;rounded=0;entryX=0;entryY=0.5;entryDx=0;entryDy=0;fontSize=14;labelPosition=center;verticalLabelPosition=middle;align=center;verticalAlign=middle;exitX=1;exitY=0.75;exitDx=0;exitDy=0;" parent="1" source="NxsAokre6TuH8EfcnmVp-36" target="NxsAokre6TuH8EfcnmVp-44" edge="1">
          <mxGeometry width="50" height="50" relative="1" as="geometry">
            <mxPoint x="810" y="330" as="sourcePoint" />
            <mxPoint x="835" y="355" as="targetPoint" />
            <Array as="points">
              <mxPoint x="860" y="360" />
            </Array>
          </mxGeometry>
        </mxCell>
        <mxCell id="NxsAokre6TuH8EfcnmVp-47" style="edgeStyle=orthogonalEdgeStyle;rounded=0;orthogonalLoop=1;jettySize=auto;html=1;entryX=0;entryY=0.5;entryDx=0;entryDy=0;fontSize=14;labelPosition=center;verticalLabelPosition=middle;align=center;verticalAlign=middle;" parent="1" source="NxsAokre6TuH8EfcnmVp-48" target="NxsAokre6TuH8EfcnmVp-62" edge="1">
          <mxGeometry relative="1" as="geometry" />
        </mxCell>
        <mxCell id="NxsAokre6TuH8EfcnmVp-48" value="&lt;b style=&quot;font-size: 14px;&quot;&gt;DPH&lt;br style=&quot;font-size: 14px;&quot;&gt;&lt;/b&gt;" style="whiteSpace=wrap;html=1;aspect=fixed;labelPosition=center;verticalLabelPosition=middle;align=center;verticalAlign=middle;fontSize=14;" parent="1" vertex="1">
          <mxGeometry x="1000" y="280" width="40" height="40" as="geometry" />
        </mxCell>
        <mxCell id="NxsAokre6TuH8EfcnmVp-75" style="edgeStyle=orthogonalEdgeStyle;rounded=0;orthogonalLoop=1;jettySize=auto;html=1;" parent="1" source="NxsAokre6TuH8EfcnmVp-49" target="NxsAokre6TuH8EfcnmVp-63" edge="1">
          <mxGeometry relative="1" as="geometry" />
        </mxCell>
        <mxCell id="NxsAokre6TuH8EfcnmVp-49" value="&lt;b style=&quot;font-size: 14px;&quot;&gt;PCD&lt;/b&gt;" style="whiteSpace=wrap;html=1;aspect=fixed;labelPosition=center;verticalLabelPosition=middle;align=center;verticalAlign=middle;fontSize=14;" parent="1" vertex="1">
          <mxGeometry x="1000" y="340" width="40" height="40" as="geometry" />
        </mxCell>
        <mxCell id="NxsAokre6TuH8EfcnmVp-51" value="&lt;b style=&quot;font-size: 14px;&quot;&gt;RPB&lt;br style=&quot;font-size: 14px;&quot;&gt;&lt;/b&gt;" style="whiteSpace=wrap;html=1;aspect=fixed;labelPosition=center;verticalLabelPosition=middle;align=center;verticalAlign=middle;fontSize=14;" parent="1" vertex="1">
          <mxGeometry x="880" y="200" width="40" height="40" as="geometry" />
        </mxCell>
        <mxCell id="NxsAokre6TuH8EfcnmVp-57" style="edgeStyle=orthogonalEdgeStyle;rounded=0;orthogonalLoop=1;jettySize=auto;html=1;fontSize=14;labelPosition=center;verticalLabelPosition=middle;align=center;verticalAlign=middle;" parent="1" source="NxsAokre6TuH8EfcnmVp-58" target="NxsAokre6TuH8EfcnmVp-59" edge="1">
          <mxGeometry relative="1" as="geometry" />
        </mxCell>
        <mxCell id="NxsAokre6TuH8EfcnmVp-58" value="&lt;b style=&quot;font-size: 14px;&quot;&gt;DP&lt;br style=&quot;font-size: 14px;&quot;&gt;&lt;/b&gt;" style="whiteSpace=wrap;html=1;aspect=fixed;labelPosition=center;verticalLabelPosition=middle;align=center;verticalAlign=middle;fontSize=14;" parent="1" vertex="1">
          <mxGeometry x="1140" y="280" width="40" height="40" as="geometry" />
        </mxCell>
        <mxCell id="NxsAokre6TuH8EfcnmVp-59" value="P11" style="ellipse;whiteSpace=wrap;html=1;aspect=fixed;labelPosition=center;verticalLabelPosition=middle;align=center;verticalAlign=middle;fontSize=14;" parent="1" vertex="1">
          <mxGeometry x="1200" y="280" width="40" height="40" as="geometry" />
        </mxCell>
        <mxCell id="NxsAokre6TuH8EfcnmVp-84" style="edgeStyle=orthogonalEdgeStyle;rounded=0;orthogonalLoop=1;jettySize=auto;html=1;entryX=0;entryY=0.5;entryDx=0;entryDy=0;" parent="1" source="NxsAokre6TuH8EfcnmVp-62" target="NxsAokre6TuH8EfcnmVp-58" edge="1">
          <mxGeometry relative="1" as="geometry" />
        </mxCell>
        <mxCell id="NxsAokre6TuH8EfcnmVp-62" value="P9" style="ellipse;whiteSpace=wrap;html=1;aspect=fixed;labelPosition=center;verticalLabelPosition=middle;align=center;verticalAlign=middle;fontSize=14;" parent="1" vertex="1">
          <mxGeometry x="1070" y="280" width="40" height="40" as="geometry" />
        </mxCell>
        <mxCell id="NxsAokre6TuH8EfcnmVp-63" value="P10" style="ellipse;whiteSpace=wrap;html=1;aspect=fixed;labelPosition=center;verticalLabelPosition=middle;align=center;verticalAlign=middle;fontSize=14;" parent="1" vertex="1">
          <mxGeometry x="1070" y="340" width="40" height="40" as="geometry" />
        </mxCell>
        <mxCell id="NxsAokre6TuH8EfcnmVp-72" value="" style="endArrow=classic;html=1;rounded=0;exitX=1;exitY=0;exitDx=0;exitDy=0;entryX=0;entryY=1;entryDx=0;entryDy=0;" parent="1" source="NxsAokre6TuH8EfcnmVp-33" target="NxsAokre6TuH8EfcnmVp-38" edge="1">
          <mxGeometry width="50" height="50" relative="1" as="geometry">
            <mxPoint x="750" y="360" as="sourcePoint" />
            <mxPoint x="800" y="310" as="targetPoint" />
          </mxGeometry>
        </mxCell>
        <mxCell id="NxsAokre6TuH8EfcnmVp-73" value="" style="endArrow=classic;html=1;rounded=0;exitX=1;exitY=0.5;exitDx=0;exitDy=0;entryX=0;entryY=0.5;entryDx=0;entryDy=0;" parent="1" source="NxsAokre6TuH8EfcnmVp-33" target="NxsAokre6TuH8EfcnmVp-36" edge="1">
          <mxGeometry width="50" height="50" relative="1" as="geometry">
            <mxPoint x="730" y="470" as="sourcePoint" />
            <mxPoint x="780" y="420" as="targetPoint" />
          </mxGeometry>
        </mxCell>
        <mxCell id="NxsAokre6TuH8EfcnmVp-77" value="" style="endArrow=classic;html=1;rounded=0;exitX=1;exitY=0;exitDx=0;exitDy=0;entryX=0;entryY=1;entryDx=0;entryDy=0;" parent="1" source="NxsAokre6TuH8EfcnmVp-63" target="NxsAokre6TuH8EfcnmVp-58" edge="1">
          <mxGeometry width="50" height="50" relative="1" as="geometry">
            <mxPoint x="1140" y="400" as="sourcePoint" />
            <mxPoint x="1190" y="350" as="targetPoint" />
          </mxGeometry>
        </mxCell>
        <mxCell id="NxsAokre6TuH8EfcnmVp-79" value="" style="endArrow=classic;html=1;rounded=0;exitX=1;exitY=0.5;exitDx=0;exitDy=0;entryX=0;entryY=0.5;entryDx=0;entryDy=0;" parent="1" source="NxsAokre6TuH8EfcnmVp-36" target="NxsAokre6TuH8EfcnmVp-42" edge="1">
          <mxGeometry width="50" height="50" relative="1" as="geometry">
            <mxPoint x="780" y="390" as="sourcePoint" />
            <mxPoint x="830" y="340" as="targetPoint" />
          </mxGeometry>
        </mxCell>
        <mxCell id="NxsAokre6TuH8EfcnmVp-82" value="" style="endArrow=classic;html=1;rounded=0;exitX=0.75;exitY=1;exitDx=0;exitDy=0;entryX=0;entryY=0;entryDx=0;entryDy=0;" parent="1" source="NxsAokre6TuH8EfcnmVp-51" target="NxsAokre6TuH8EfcnmVp-42" edge="1">
          <mxGeometry width="50" height="50" relative="1" as="geometry">
            <mxPoint x="1020" y="220" as="sourcePoint" />
            <mxPoint x="1070" y="170" as="targetPoint" />
          </mxGeometry>
        </mxCell>
        <mxCell id="NxsAokre6TuH8EfcnmVp-83" value="" style="endArrow=classic;html=1;rounded=0;exitX=0.5;exitY=1;exitDx=0;exitDy=0;entryX=0;entryY=0;entryDx=0;entryDy=0;" parent="1" source="NxsAokre6TuH8EfcnmVp-51" target="NxsAokre6TuH8EfcnmVp-44" edge="1">
          <mxGeometry width="50" height="50" relative="1" as="geometry">
            <mxPoint x="1000" y="220" as="sourcePoint" />
            <mxPoint x="1050" y="170" as="targetPoint" />
          </mxGeometry>
        </mxCell>
      </root>
    </mxGraphModel>
  </diagram>
</mxfile>
